<svg width="36" height="36" viewBox="0 0 36 36" fill="none" xmlns="http://www.w3.org/2000/svg">
<path d="M30.152 30.7119C30.5549 30.7119 30.9413 30.8719 31.2262 31.1568C31.5111 31.4417 31.6711 31.8281 31.6711 32.2309C31.6711 32.6338 31.5111 33.0202 31.2262 33.3051C30.9413 33.59 30.5549 33.75 30.152 33.75H5.84718C5.4443 33.75 5.05792 33.59 4.77305 33.3051C4.48817 33.0202 4.32812 32.6338 4.32812 32.2309C4.32812 31.8281 4.48817 31.4417 4.77305 31.1568C5.05792 30.8719 5.4443 30.7119 5.84718 30.7119H30.152ZM17.9996 3.375C18.4025 3.375 18.7889 3.53504 19.0737 3.81992C19.3586 4.1048 19.5187 4.49118 19.5187 4.89405V23.2427L26.7949 15.9664C27.068 15.6935 27.4348 15.5348 27.8208 15.5226C28.2067 15.5104 28.5828 15.6456 28.8726 15.9008C29.1624 16.156 29.3441 16.5119 29.3809 16.8963C29.4177 17.2807 29.3067 17.6646 29.0705 17.9701L28.9429 18.1129L19.0675 27.9943C18.8061 28.2561 18.4582 28.4135 18.089 28.437C17.7199 28.4605 17.3548 28.3484 17.0624 28.1219L16.9196 27.9958L7.05331 18.1463C6.77984 17.8734 6.6206 17.5066 6.60799 17.1205C6.59538 16.7344 6.73035 16.358 6.98544 16.0679C7.24052 15.7778 7.59656 15.5957 7.9811 15.5588C8.36565 15.5219 8.74981 15.6329 9.05542 15.8692L9.19821 15.9953L16.4806 23.2625V4.89405C16.4806 4.49118 16.6406 4.1048 16.9255 3.81992C17.2104 3.53504 17.5967 3.375 17.9996 3.375Z" fill="#1A1A1A" stroke="#1A1A1A" stroke-width="0.225"/>
</svg>
